<mxfile host="Electron" modified="2023-06-29T04:10:24.298Z" agent="Mozilla/5.0 (Windows NT 10.0; Win64; x64) AppleWebKit/537.36 (KHTML, like Gecko) draw.io/21.2.8 Chrome/112.0.5615.165 Electron/24.2.0 Safari/537.36" etag="lqDhSRbcg3E8D5PusHe-" version="21.2.8" type="device">
  <diagram name="Page-1" id="qohJ46_SzW7HwRw5yFLm">
    <mxGraphModel dx="1630" dy="504" grid="1" gridSize="9" guides="1" tooltips="1" connect="1" arrows="1" fold="1" page="1" pageScale="1" pageWidth="850" pageHeight="1100" math="0" shadow="0">
      <root>
        <mxCell id="0" />
        <mxCell id="1" parent="0" />
        <mxCell id="glcUJ5ITNO5GYX7P-8pd-1" value="START" style="ellipse;whiteSpace=wrap;html=1;" parent="1" vertex="1">
          <mxGeometry x="340" y="20" width="100" height="60" as="geometry" />
        </mxCell>
        <mxCell id="glcUJ5ITNO5GYX7P-8pd-2" value="" style="endArrow=classic;html=1;rounded=0;exitX=0.5;exitY=1;exitDx=0;exitDy=0;" parent="1" source="glcUJ5ITNO5GYX7P-8pd-1" edge="1">
          <mxGeometry width="50" height="50" relative="1" as="geometry">
            <mxPoint x="400" y="90" as="sourcePoint" />
            <mxPoint x="390" y="120" as="targetPoint" />
          </mxGeometry>
        </mxCell>
        <mxCell id="glcUJ5ITNO5GYX7P-8pd-5" value="" style="edgeStyle=orthogonalEdgeStyle;rounded=0;orthogonalLoop=1;jettySize=auto;html=1;" parent="1" target="glcUJ5ITNO5GYX7P-8pd-4" edge="1">
          <mxGeometry relative="1" as="geometry">
            <mxPoint x="390" y="216" as="sourcePoint" />
          </mxGeometry>
        </mxCell>
        <mxCell id="glcUJ5ITNO5GYX7P-8pd-7" value="" style="edgeStyle=orthogonalEdgeStyle;rounded=0;orthogonalLoop=1;jettySize=auto;html=1;" parent="1" source="glcUJ5ITNO5GYX7P-8pd-4" target="glcUJ5ITNO5GYX7P-8pd-6" edge="1">
          <mxGeometry relative="1" as="geometry" />
        </mxCell>
        <mxCell id="glcUJ5ITNO5GYX7P-8pd-4" value="Login" style="whiteSpace=wrap;html=1;" parent="1" vertex="1">
          <mxGeometry x="345" y="261" width="90" height="45" as="geometry" />
        </mxCell>
        <mxCell id="glcUJ5ITNO5GYX7P-8pd-9" value="" style="edgeStyle=orthogonalEdgeStyle;rounded=0;orthogonalLoop=1;jettySize=auto;html=1;" parent="1" source="glcUJ5ITNO5GYX7P-8pd-6" target="glcUJ5ITNO5GYX7P-8pd-8" edge="1">
          <mxGeometry relative="1" as="geometry" />
        </mxCell>
        <mxCell id="glcUJ5ITNO5GYX7P-8pd-38" value="" style="edgeStyle=orthogonalEdgeStyle;rounded=0;orthogonalLoop=1;jettySize=auto;html=1;" parent="1" source="glcUJ5ITNO5GYX7P-8pd-6" target="glcUJ5ITNO5GYX7P-8pd-37" edge="1">
          <mxGeometry relative="1" as="geometry" />
        </mxCell>
        <mxCell id="glcUJ5ITNO5GYX7P-8pd-6" value="Is Correct" style="rhombus;whiteSpace=wrap;html=1;" parent="1" vertex="1">
          <mxGeometry x="350" y="351" width="80" height="81" as="geometry" />
        </mxCell>
        <mxCell id="glcUJ5ITNO5GYX7P-8pd-11" value="" style="edgeStyle=orthogonalEdgeStyle;rounded=0;orthogonalLoop=1;jettySize=auto;html=1;" parent="1" source="glcUJ5ITNO5GYX7P-8pd-8" target="glcUJ5ITNO5GYX7P-8pd-10" edge="1">
          <mxGeometry relative="1" as="geometry" />
        </mxCell>
        <mxCell id="glcUJ5ITNO5GYX7P-8pd-8" value="Kitchen Staff" style="rhombus;whiteSpace=wrap;html=1;" parent="1" vertex="1">
          <mxGeometry x="350" y="477" width="80" height="80" as="geometry" />
        </mxCell>
        <mxCell id="glcUJ5ITNO5GYX7P-8pd-13" value="" style="edgeStyle=orthogonalEdgeStyle;rounded=0;orthogonalLoop=1;jettySize=auto;html=1;" parent="1" source="glcUJ5ITNO5GYX7P-8pd-10" target="glcUJ5ITNO5GYX7P-8pd-12" edge="1">
          <mxGeometry relative="1" as="geometry" />
        </mxCell>
        <mxCell id="glcUJ5ITNO5GYX7P-8pd-10" value="Kitchen Dashboard" style="whiteSpace=wrap;html=1;" parent="1" vertex="1">
          <mxGeometry x="657" y="487" width="117" height="60" as="geometry" />
        </mxCell>
        <mxCell id="glcUJ5ITNO5GYX7P-8pd-15" value="" style="edgeStyle=orthogonalEdgeStyle;rounded=0;orthogonalLoop=1;jettySize=auto;html=1;" parent="1" source="glcUJ5ITNO5GYX7P-8pd-12" target="glcUJ5ITNO5GYX7P-8pd-14" edge="1">
          <mxGeometry relative="1" as="geometry" />
        </mxCell>
        <mxCell id="glcUJ5ITNO5GYX7P-8pd-12" value="View" style="whiteSpace=wrap;html=1;" parent="1" vertex="1">
          <mxGeometry x="655.5" y="612" width="120" height="60" as="geometry" />
        </mxCell>
        <mxCell id="glcUJ5ITNO5GYX7P-8pd-17" value="" style="edgeStyle=orthogonalEdgeStyle;rounded=0;orthogonalLoop=1;jettySize=auto;html=1;" parent="1" source="glcUJ5ITNO5GYX7P-8pd-14" target="glcUJ5ITNO5GYX7P-8pd-16" edge="1">
          <mxGeometry relative="1" as="geometry" />
        </mxCell>
        <mxCell id="glcUJ5ITNO5GYX7P-8pd-14" value="Search" style="whiteSpace=wrap;html=1;" parent="1" vertex="1">
          <mxGeometry x="655.5" y="720" width="120" height="60" as="geometry" />
        </mxCell>
        <mxCell id="glcUJ5ITNO5GYX7P-8pd-16" value="Update" style="whiteSpace=wrap;html=1;" parent="1" vertex="1">
          <mxGeometry x="655.5" y="837" width="120" height="60" as="geometry" />
        </mxCell>
        <mxCell id="glcUJ5ITNO5GYX7P-8pd-32" value="" style="edgeStyle=orthogonalEdgeStyle;rounded=0;orthogonalLoop=1;jettySize=auto;html=1;" parent="1" source="glcUJ5ITNO5GYX7P-8pd-20" target="glcUJ5ITNO5GYX7P-8pd-31" edge="1">
          <mxGeometry relative="1" as="geometry" />
        </mxCell>
        <mxCell id="glcUJ5ITNO5GYX7P-8pd-20" value="User" style="rhombus;whiteSpace=wrap;html=1;" parent="1" vertex="1">
          <mxGeometry x="350" y="612" width="80" height="80" as="geometry" />
        </mxCell>
        <mxCell id="glcUJ5ITNO5GYX7P-8pd-22" value="" style="endArrow=classic;html=1;rounded=0;exitX=0.5;exitY=1;exitDx=0;exitDy=0;" parent="1" source="glcUJ5ITNO5GYX7P-8pd-8" target="glcUJ5ITNO5GYX7P-8pd-20" edge="1">
          <mxGeometry width="50" height="50" relative="1" as="geometry">
            <mxPoint x="369" y="698" as="sourcePoint" />
            <mxPoint x="419" y="648" as="targetPoint" />
          </mxGeometry>
        </mxCell>
        <mxCell id="glcUJ5ITNO5GYX7P-8pd-23" value="NO" style="text;html=1;strokeColor=none;fillColor=none;align=center;verticalAlign=middle;whiteSpace=wrap;rounded=0;" parent="1" vertex="1">
          <mxGeometry x="375" y="564" width="60" height="30" as="geometry" />
        </mxCell>
        <mxCell id="glcUJ5ITNO5GYX7P-8pd-24" value="Yes" style="text;html=1;strokeColor=none;fillColor=none;align=center;verticalAlign=middle;whiteSpace=wrap;rounded=0;" parent="1" vertex="1">
          <mxGeometry x="375" y="441" width="60" height="30" as="geometry" />
        </mxCell>
        <mxCell id="glcUJ5ITNO5GYX7P-8pd-26" value="Yes" style="text;html=1;strokeColor=none;fillColor=none;align=center;verticalAlign=middle;whiteSpace=wrap;rounded=0;" parent="1" vertex="1">
          <mxGeometry x="375" y="315" width="60" height="30" as="geometry" />
        </mxCell>
        <mxCell id="glcUJ5ITNO5GYX7P-8pd-30" value="" style="edgeStyle=orthogonalEdgeStyle;rounded=0;orthogonalLoop=1;jettySize=auto;html=1;" parent="1" source="glcUJ5ITNO5GYX7P-8pd-27" target="glcUJ5ITNO5GYX7P-8pd-29" edge="1">
          <mxGeometry relative="1" as="geometry" />
        </mxCell>
        <mxCell id="glcUJ5ITNO5GYX7P-8pd-27" value="User&amp;nbsp;&lt;br&gt;Dashboard" style="whiteSpace=wrap;html=1;" parent="1" vertex="1">
          <mxGeometry x="198" y="625.5" width="92" height="53" as="geometry" />
        </mxCell>
        <mxCell id="glcUJ5ITNO5GYX7P-8pd-53" value="" style="edgeStyle=orthogonalEdgeStyle;rounded=0;orthogonalLoop=1;jettySize=auto;html=1;" parent="1" source="glcUJ5ITNO5GYX7P-8pd-29" target="glcUJ5ITNO5GYX7P-8pd-52" edge="1">
          <mxGeometry relative="1" as="geometry" />
        </mxCell>
        <mxCell id="glcUJ5ITNO5GYX7P-8pd-29" value="Search Menu" style="whiteSpace=wrap;html=1;" parent="1" vertex="1">
          <mxGeometry x="36" y="622" width="102" height="60" as="geometry" />
        </mxCell>
        <mxCell id="glcUJ5ITNO5GYX7P-8pd-34" value="" style="edgeStyle=orthogonalEdgeStyle;rounded=0;orthogonalLoop=1;jettySize=auto;html=1;" parent="1" source="glcUJ5ITNO5GYX7P-8pd-31" target="glcUJ5ITNO5GYX7P-8pd-33" edge="1">
          <mxGeometry relative="1" as="geometry" />
        </mxCell>
        <mxCell id="glcUJ5ITNO5GYX7P-8pd-31" value="Admin" style="rhombus;whiteSpace=wrap;html=1;" parent="1" vertex="1">
          <mxGeometry x="510" y="612" width="80" height="80" as="geometry" />
        </mxCell>
        <mxCell id="glcUJ5ITNO5GYX7P-8pd-67" value="" style="edgeStyle=orthogonalEdgeStyle;rounded=0;orthogonalLoop=1;jettySize=auto;html=1;" parent="1" source="glcUJ5ITNO5GYX7P-8pd-33" target="glcUJ5ITNO5GYX7P-8pd-66" edge="1">
          <mxGeometry relative="1" as="geometry" />
        </mxCell>
        <mxCell id="glcUJ5ITNO5GYX7P-8pd-33" value="Admin&lt;br&gt;DashBoard" style="rhombus;whiteSpace=wrap;html=1;" parent="1" vertex="1">
          <mxGeometry x="510" y="747" width="80" height="80" as="geometry" />
        </mxCell>
        <mxCell id="glcUJ5ITNO5GYX7P-8pd-36" value="Yes" style="text;html=1;strokeColor=none;fillColor=none;align=center;verticalAlign=middle;whiteSpace=wrap;rounded=0;" parent="1" vertex="1">
          <mxGeometry x="380" y="216" width="60" height="30" as="geometry" />
        </mxCell>
        <mxCell id="glcUJ5ITNO5GYX7P-8pd-37" value="Invalid User" style="whiteSpace=wrap;html=1;" parent="1" vertex="1">
          <mxGeometry x="180" y="365.25" width="110" height="52.5" as="geometry" />
        </mxCell>
        <mxCell id="glcUJ5ITNO5GYX7P-8pd-44" value="" style="endArrow=classic;html=1;rounded=0;" parent="1" edge="1">
          <mxGeometry width="50" height="50" relative="1" as="geometry">
            <mxPoint x="243" y="288" as="sourcePoint" />
            <mxPoint x="342" y="288" as="targetPoint" />
          </mxGeometry>
        </mxCell>
        <mxCell id="glcUJ5ITNO5GYX7P-8pd-47" value="" style="endArrow=none;html=1;rounded=0;" parent="1" edge="1">
          <mxGeometry width="50" height="50" relative="1" as="geometry">
            <mxPoint x="243" y="365" as="sourcePoint" />
            <mxPoint x="243" y="288" as="targetPoint" />
          </mxGeometry>
        </mxCell>
        <mxCell id="glcUJ5ITNO5GYX7P-8pd-51" value="" style="endArrow=classic;html=1;rounded=0;exitX=0;exitY=0.5;exitDx=0;exitDy=0;entryX=1;entryY=0.5;entryDx=0;entryDy=0;" parent="1" source="glcUJ5ITNO5GYX7P-8pd-20" target="glcUJ5ITNO5GYX7P-8pd-27" edge="1">
          <mxGeometry width="50" height="50" relative="1" as="geometry">
            <mxPoint x="360" y="617" as="sourcePoint" />
            <mxPoint x="410" y="567" as="targetPoint" />
          </mxGeometry>
        </mxCell>
        <mxCell id="glcUJ5ITNO5GYX7P-8pd-61" value="" style="edgeStyle=orthogonalEdgeStyle;rounded=0;orthogonalLoop=1;jettySize=auto;html=1;" parent="1" source="glcUJ5ITNO5GYX7P-8pd-52" target="glcUJ5ITNO5GYX7P-8pd-60" edge="1">
          <mxGeometry relative="1" as="geometry" />
        </mxCell>
        <mxCell id="glcUJ5ITNO5GYX7P-8pd-52" value="Is Present" style="rhombus;whiteSpace=wrap;html=1;" parent="1" vertex="1">
          <mxGeometry x="47" y="752" width="80" height="80" as="geometry" />
        </mxCell>
        <mxCell id="glcUJ5ITNO5GYX7P-8pd-54" value="" style="endArrow=none;html=1;rounded=0;exitX=0;exitY=0.5;exitDx=0;exitDy=0;" parent="1" source="glcUJ5ITNO5GYX7P-8pd-52" edge="1">
          <mxGeometry width="50" height="50" relative="1" as="geometry">
            <mxPoint x="72" y="617" as="sourcePoint" />
            <mxPoint x="9" y="792" as="targetPoint" />
          </mxGeometry>
        </mxCell>
        <mxCell id="glcUJ5ITNO5GYX7P-8pd-55" value="" style="endArrow=none;html=1;rounded=0;" parent="1" edge="1">
          <mxGeometry width="50" height="50" relative="1" as="geometry">
            <mxPoint x="9" y="792" as="sourcePoint" />
            <mxPoint x="9" y="666" as="targetPoint" />
          </mxGeometry>
        </mxCell>
        <mxCell id="glcUJ5ITNO5GYX7P-8pd-56" value="" style="endArrow=classic;html=1;rounded=0;entryX=0;entryY=0.75;entryDx=0;entryDy=0;" parent="1" target="glcUJ5ITNO5GYX7P-8pd-29" edge="1">
          <mxGeometry width="50" height="50" relative="1" as="geometry">
            <mxPoint x="9" y="666" as="sourcePoint" />
            <mxPoint x="122" y="567" as="targetPoint" />
          </mxGeometry>
        </mxCell>
        <mxCell id="glcUJ5ITNO5GYX7P-8pd-57" value="Yes" style="text;html=1;strokeColor=none;fillColor=none;align=center;verticalAlign=middle;whiteSpace=wrap;rounded=0;" parent="1" vertex="1">
          <mxGeometry x="290" y="622" width="60" height="30" as="geometry" />
        </mxCell>
        <mxCell id="glcUJ5ITNO5GYX7P-8pd-63" value="" style="edgeStyle=orthogonalEdgeStyle;rounded=0;orthogonalLoop=1;jettySize=auto;html=1;" parent="1" source="glcUJ5ITNO5GYX7P-8pd-60" target="glcUJ5ITNO5GYX7P-8pd-62" edge="1">
          <mxGeometry relative="1" as="geometry" />
        </mxCell>
        <mxCell id="glcUJ5ITNO5GYX7P-8pd-60" value="View" style="whiteSpace=wrap;html=1;" parent="1" vertex="1">
          <mxGeometry x="37.5" y="873" width="99" height="45" as="geometry" />
        </mxCell>
        <mxCell id="glcUJ5ITNO5GYX7P-8pd-62" value="Place Order" style="whiteSpace=wrap;html=1;" parent="1" vertex="1">
          <mxGeometry x="37.5" y="963" width="99" height="54" as="geometry" />
        </mxCell>
        <mxCell id="glcUJ5ITNO5GYX7P-8pd-64" value="No" style="text;html=1;strokeColor=none;fillColor=none;align=center;verticalAlign=middle;whiteSpace=wrap;rounded=0;" parent="1" vertex="1">
          <mxGeometry x="430" y="622" width="60" height="30" as="geometry" />
        </mxCell>
        <mxCell id="glcUJ5ITNO5GYX7P-8pd-65" value="Yes" style="text;html=1;strokeColor=none;fillColor=none;align=center;verticalAlign=middle;whiteSpace=wrap;rounded=0;" parent="1" vertex="1">
          <mxGeometry x="540" y="693" width="60" height="30" as="geometry" />
        </mxCell>
        <mxCell id="glcUJ5ITNO5GYX7P-8pd-69" value="" style="edgeStyle=orthogonalEdgeStyle;rounded=0;orthogonalLoop=1;jettySize=auto;html=1;" parent="1" source="glcUJ5ITNO5GYX7P-8pd-66" target="glcUJ5ITNO5GYX7P-8pd-68" edge="1">
          <mxGeometry relative="1" as="geometry" />
        </mxCell>
        <mxCell id="glcUJ5ITNO5GYX7P-8pd-66" value="View" style="whiteSpace=wrap;html=1;" parent="1" vertex="1">
          <mxGeometry x="505" y="873" width="90" height="45" as="geometry" />
        </mxCell>
        <mxCell id="glcUJ5ITNO5GYX7P-8pd-71" value="" style="edgeStyle=orthogonalEdgeStyle;rounded=0;orthogonalLoop=1;jettySize=auto;html=1;" parent="1" source="glcUJ5ITNO5GYX7P-8pd-68" target="glcUJ5ITNO5GYX7P-8pd-70" edge="1">
          <mxGeometry relative="1" as="geometry" />
        </mxCell>
        <mxCell id="glcUJ5ITNO5GYX7P-8pd-68" value="Add" style="whiteSpace=wrap;html=1;" parent="1" vertex="1">
          <mxGeometry x="505" y="954" width="90" height="45" as="geometry" />
        </mxCell>
        <mxCell id="glcUJ5ITNO5GYX7P-8pd-70" value="Update" style="whiteSpace=wrap;html=1;" parent="1" vertex="1">
          <mxGeometry x="505" y="1044" width="90" height="45" as="geometry" />
        </mxCell>
        <mxCell id="glcUJ5ITNO5GYX7P-8pd-72" value="" style="endArrow=none;html=1;rounded=0;entryX=-0.018;entryY=0.617;entryDx=0;entryDy=0;entryPerimeter=0;" parent="1" target="glcUJ5ITNO5GYX7P-8pd-12" edge="1">
          <mxGeometry width="50" height="50" relative="1" as="geometry">
            <mxPoint x="612" y="649" as="sourcePoint" />
            <mxPoint x="518" y="756" as="targetPoint" />
          </mxGeometry>
        </mxCell>
        <mxCell id="glcUJ5ITNO5GYX7P-8pd-73" value="" style="endArrow=none;html=1;rounded=0;" parent="1" edge="1">
          <mxGeometry width="50" height="50" relative="1" as="geometry">
            <mxPoint x="612" y="756" as="sourcePoint" />
            <mxPoint x="612" y="648" as="targetPoint" />
          </mxGeometry>
        </mxCell>
        <mxCell id="glcUJ5ITNO5GYX7P-8pd-74" value="" style="endArrow=classic;html=1;rounded=0;" parent="1" edge="1">
          <mxGeometry width="50" height="50" relative="1" as="geometry">
            <mxPoint x="612" y="756" as="sourcePoint" />
            <mxPoint x="648" y="756" as="targetPoint" />
          </mxGeometry>
        </mxCell>
        <mxCell id="glcUJ5ITNO5GYX7P-8pd-75" value="" style="endArrow=none;html=1;rounded=0;" parent="1" edge="1">
          <mxGeometry width="50" height="50" relative="1" as="geometry">
            <mxPoint x="612" y="873" as="sourcePoint" />
            <mxPoint x="612" y="756" as="targetPoint" />
          </mxGeometry>
        </mxCell>
        <mxCell id="glcUJ5ITNO5GYX7P-8pd-76" value="" style="endArrow=classic;html=1;rounded=0;" parent="1" edge="1">
          <mxGeometry width="50" height="50" relative="1" as="geometry">
            <mxPoint x="612" y="873" as="sourcePoint" />
            <mxPoint x="648" y="873" as="targetPoint" />
          </mxGeometry>
        </mxCell>
        <mxCell id="glcUJ5ITNO5GYX7P-8pd-78" value="" style="endArrow=classic;html=1;rounded=0;entryX=0.989;entryY=0.4;entryDx=0;entryDy=0;entryPerimeter=0;" parent="1" target="glcUJ5ITNO5GYX7P-8pd-70" edge="1">
          <mxGeometry width="50" height="50" relative="1" as="geometry">
            <mxPoint x="720" y="1062" as="sourcePoint" />
            <mxPoint x="603" y="1062" as="targetPoint" />
          </mxGeometry>
        </mxCell>
        <mxCell id="glcUJ5ITNO5GYX7P-8pd-79" value="" style="endArrow=classic;html=1;rounded=0;" parent="1" edge="1">
          <mxGeometry width="50" height="50" relative="1" as="geometry">
            <mxPoint x="720" y="1062" as="sourcePoint" />
            <mxPoint x="720" y="900" as="targetPoint" />
            <Array as="points" />
          </mxGeometry>
        </mxCell>
        <mxCell id="glcUJ5ITNO5GYX7P-8pd-81" value="" style="endArrow=classic;html=1;rounded=0;exitX=0.5;exitY=1;exitDx=0;exitDy=0;" parent="1" source="glcUJ5ITNO5GYX7P-8pd-70" edge="1">
          <mxGeometry width="50" height="50" relative="1" as="geometry">
            <mxPoint x="549" y="1022" as="sourcePoint" />
            <mxPoint x="549" y="1134" as="targetPoint" />
          </mxGeometry>
        </mxCell>
        <mxCell id="glcUJ5ITNO5GYX7P-8pd-82" value="Stop" style="ellipse;whiteSpace=wrap;html=1;" parent="1" vertex="1">
          <mxGeometry x="510" y="1134" width="88" height="54" as="geometry" />
        </mxCell>
        <mxCell id="glcUJ5ITNO5GYX7P-8pd-83" value="" style="endArrow=classic;html=1;rounded=0;entryX=1;entryY=0.5;entryDx=0;entryDy=0;" parent="1" target="glcUJ5ITNO5GYX7P-8pd-62" edge="1">
          <mxGeometry width="50" height="50" relative="1" as="geometry">
            <mxPoint x="360" y="990" as="sourcePoint" />
            <mxPoint x="374" y="1044" as="targetPoint" />
          </mxGeometry>
        </mxCell>
        <mxCell id="glcUJ5ITNO5GYX7P-8pd-85" value="" style="endArrow=none;html=1;rounded=0;" parent="1" edge="1">
          <mxGeometry width="50" height="50" relative="1" as="geometry">
            <mxPoint x="360" y="990" as="sourcePoint" />
            <mxPoint x="360" y="909" as="targetPoint" />
          </mxGeometry>
        </mxCell>
        <mxCell id="glcUJ5ITNO5GYX7P-8pd-86" value="" style="endArrow=classic;html=1;rounded=0;" parent="1" edge="1">
          <mxGeometry width="50" height="50" relative="1" as="geometry">
            <mxPoint x="360" y="909" as="sourcePoint" />
            <mxPoint x="504" y="909" as="targetPoint" />
          </mxGeometry>
        </mxCell>
        <mxCell id="glcUJ5ITNO5GYX7P-8pd-87" value="Status" style="rounded=0;whiteSpace=wrap;html=1;" parent="1" vertex="1">
          <mxGeometry x="-144" y="966" width="108" height="51" as="geometry" />
        </mxCell>
        <mxCell id="glcUJ5ITNO5GYX7P-8pd-88" value="" style="endArrow=none;html=1;rounded=0;" parent="1" edge="1">
          <mxGeometry width="50" height="50" relative="1" as="geometry">
            <mxPoint x="-99" y="963" as="sourcePoint" />
            <mxPoint x="-99" y="900" as="targetPoint" />
          </mxGeometry>
        </mxCell>
        <mxCell id="glcUJ5ITNO5GYX7P-8pd-90" value="" style="endArrow=classic;html=1;rounded=0;" parent="1" edge="1">
          <mxGeometry width="50" height="50" relative="1" as="geometry">
            <mxPoint x="-99" y="900" as="sourcePoint" />
            <mxPoint x="36" y="900" as="targetPoint" />
          </mxGeometry>
        </mxCell>
        <mxCell id="glcUJ5ITNO5GYX7P-8pd-91" value="" style="endArrow=none;html=1;rounded=0;exitX=0.5;exitY=1;exitDx=0;exitDy=0;" parent="1" source="glcUJ5ITNO5GYX7P-8pd-87" edge="1">
          <mxGeometry width="50" height="50" relative="1" as="geometry">
            <mxPoint x="-90" y="1026" as="sourcePoint" />
            <mxPoint x="-90" y="1170" as="targetPoint" />
          </mxGeometry>
        </mxCell>
        <mxCell id="glcUJ5ITNO5GYX7P-8pd-92" value="" style="endArrow=classic;html=1;rounded=0;entryX=0.008;entryY=0.648;entryDx=0;entryDy=0;entryPerimeter=0;" parent="1" target="glcUJ5ITNO5GYX7P-8pd-82" edge="1">
          <mxGeometry width="50" height="50" relative="1" as="geometry">
            <mxPoint x="-90" y="1170" as="sourcePoint" />
            <mxPoint x="504" y="1170" as="targetPoint" />
          </mxGeometry>
        </mxCell>
        <mxCell id="glcUJ5ITNO5GYX7P-8pd-93" value="" style="endArrow=none;html=1;rounded=0;entryX=0;entryY=0.5;entryDx=0;entryDy=0;" parent="1" target="glcUJ5ITNO5GYX7P-8pd-70" edge="1">
          <mxGeometry width="50" height="50" relative="1" as="geometry">
            <mxPoint x="-63" y="1067" as="sourcePoint" />
            <mxPoint x="239" y="1017" as="targetPoint" />
          </mxGeometry>
        </mxCell>
        <mxCell id="glcUJ5ITNO5GYX7P-8pd-94" value="" style="endArrow=classic;html=1;rounded=0;entryX=0.75;entryY=1;entryDx=0;entryDy=0;" parent="1" target="glcUJ5ITNO5GYX7P-8pd-87" edge="1">
          <mxGeometry width="50" height="50" relative="1" as="geometry">
            <mxPoint x="-63" y="1067" as="sourcePoint" />
            <mxPoint x="239" y="1017" as="targetPoint" />
          </mxGeometry>
        </mxCell>
        <mxCell id="glcUJ5ITNO5GYX7P-8pd-95" value="" style="endArrow=none;html=1;rounded=0;entryX=1;entryY=0.5;entryDx=0;entryDy=0;" parent="1" target="glcUJ5ITNO5GYX7P-8pd-12" edge="1">
          <mxGeometry width="50" height="50" relative="1" as="geometry">
            <mxPoint x="828" y="642" as="sourcePoint" />
            <mxPoint x="554" y="819" as="targetPoint" />
          </mxGeometry>
        </mxCell>
        <mxCell id="glcUJ5ITNO5GYX7P-8pd-97" value="" style="endArrow=none;html=1;rounded=0;" parent="1" edge="1">
          <mxGeometry width="50" height="50" relative="1" as="geometry">
            <mxPoint x="828" y="1161" as="sourcePoint" />
            <mxPoint x="828" y="639" as="targetPoint" />
          </mxGeometry>
        </mxCell>
        <mxCell id="glcUJ5ITNO5GYX7P-8pd-99" value="" style="endArrow=classic;html=1;rounded=0;exitX=1;exitY=0.5;exitDx=0;exitDy=0;" parent="1" source="glcUJ5ITNO5GYX7P-8pd-14" edge="1">
          <mxGeometry width="50" height="50" relative="1" as="geometry">
            <mxPoint x="504" y="869" as="sourcePoint" />
            <mxPoint x="828" y="750" as="targetPoint" />
          </mxGeometry>
        </mxCell>
        <mxCell id="glcUJ5ITNO5GYX7P-8pd-100" value="" style="endArrow=classic;html=1;rounded=0;exitX=1;exitY=0.5;exitDx=0;exitDy=0;" parent="1" source="glcUJ5ITNO5GYX7P-8pd-16" edge="1">
          <mxGeometry width="50" height="50" relative="1" as="geometry">
            <mxPoint x="504" y="869" as="sourcePoint" />
            <mxPoint x="828" y="867" as="targetPoint" />
          </mxGeometry>
        </mxCell>
        <mxCell id="j0mSi07p2tDv42ZJ_Hj5-3" value="No" style="text;html=1;strokeColor=none;fillColor=none;align=center;verticalAlign=middle;whiteSpace=wrap;rounded=0;" parent="1" vertex="1">
          <mxGeometry x="290" y="365.25" width="60" height="30" as="geometry" />
        </mxCell>
        <mxCell id="j0mSi07p2tDv42ZJ_Hj5-7" value="" style="endArrow=classic;html=1;rounded=0;entryX=1;entryY=0.5;entryDx=0;entryDy=0;" parent="1" target="glcUJ5ITNO5GYX7P-8pd-82" edge="1">
          <mxGeometry width="50" height="50" relative="1" as="geometry">
            <mxPoint x="828" y="1161" as="sourcePoint" />
            <mxPoint x="446" y="927" as="targetPoint" />
          </mxGeometry>
        </mxCell>
        <mxCell id="j0mSi07p2tDv42ZJ_Hj5-8" value="" style="endArrow=none;html=1;rounded=0;exitX=1;exitY=0;exitDx=0;exitDy=0;" parent="1" source="glcUJ5ITNO5GYX7P-8pd-66" edge="1">
          <mxGeometry width="50" height="50" relative="1" as="geometry">
            <mxPoint x="594" y="864" as="sourcePoint" />
            <mxPoint x="595" y="531" as="targetPoint" />
          </mxGeometry>
        </mxCell>
        <mxCell id="j0mSi07p2tDv42ZJ_Hj5-9" value="" style="endArrow=classic;html=1;rounded=0;entryX=0;entryY=0.75;entryDx=0;entryDy=0;" parent="1" target="glcUJ5ITNO5GYX7P-8pd-10" edge="1">
          <mxGeometry width="50" height="50" relative="1" as="geometry">
            <mxPoint x="594" y="531" as="sourcePoint" />
            <mxPoint x="491" y="738" as="targetPoint" />
          </mxGeometry>
        </mxCell>
        <mxCell id="M-kSepqOh9WffvziaXkg-1" value="Yes" style="text;html=1;strokeColor=none;fillColor=none;align=center;verticalAlign=middle;whiteSpace=wrap;rounded=0;" vertex="1" parent="1">
          <mxGeometry x="90" y="832" width="60" height="36" as="geometry" />
        </mxCell>
        <mxCell id="M-kSepqOh9WffvziaXkg-2" value="No" style="text;html=1;strokeColor=none;fillColor=none;align=center;verticalAlign=middle;whiteSpace=wrap;rounded=0;" vertex="1" parent="1">
          <mxGeometry x="-54" y="720" width="60" height="27" as="geometry" />
        </mxCell>
        <mxCell id="M-kSepqOh9WffvziaXkg-3" value="" style="rhombus;whiteSpace=wrap;html=1;" vertex="1" parent="1">
          <mxGeometry x="333" y="117" width="117" height="99" as="geometry" />
        </mxCell>
        <mxCell id="M-kSepqOh9WffvziaXkg-4" value="Admin/&lt;br&gt;User/&lt;br&gt;Kitchen Staff" style="text;html=1;strokeColor=none;fillColor=none;align=center;verticalAlign=middle;whiteSpace=wrap;rounded=0;" vertex="1" parent="1">
          <mxGeometry x="365" y="135" width="60" height="63" as="geometry" />
        </mxCell>
      </root>
    </mxGraphModel>
  </diagram>
</mxfile>
